<?xml version="1.0" encoding="UTF-8"?>
<svg id="Vrstva_1" data-name="Vrstva 1" xmlns="http://www.w3.org/2000/svg" viewBox="0 0 147.39 192.73">
  <defs>
    <style>
      .cls-1 {
        fill: #a851a8;
      }
    </style>
  </defs>
  <path class="cls-1" d="M2.94,156.02v-18.36c1.96.49,4.16.73,6.61.73,4.04,0,7.04-1.01,8.99-3.03,1.96-2.02,2.94-5.11,2.94-9.27V27.53h20.19v98.02c0,10.53-2.42,18.36-7.25,23.5-4.84,5.14-12.21,7.71-22.12,7.71-3.67,0-6.79-.25-9.36-.73Z"/>
  <path class="cls-1" d="M56.17,27.53h28.82l12.85,91.96h.37l12.85-91.96h28.82v128.49h-19.09V58.74h-.37l-14.68,97.28h-16.89l-14.68-97.28h-.37v97.28h-17.62V27.53Z"/>
</svg>